<svg xmlns="http://www.w3.org/2000/svg" viewBox="0 0 32 32"><defs><radialGradient id="a" cx="81.42%" cy="16.47%" r="93.4%" fx="81.42%" fy="16.47%"><stop offset="0%" stop-color="#EE0005"/><stop offset="55.9%" stop-color="#EB0004"/><stop offset="100%" stop-color="#B30008"/></radialGradient></defs><g fill="none" fill-rule="evenodd"><polygon fill="url(#a)" fill-rule="nonzero" points="0 32 32 32 32 0 0 0"/><path fill="#FFFFFF" d="M15.79 20.66v-9.89h6.05v1.56h-4.42v2.71h3.8v1.53h-3.8v4.09h-1.63zm12.91 0l-2.21-3.98h-1.65v3.98H23.2v-9.89h3.65c1.48 0 3.44.41 3.44 2.87 0 1.68-.87 2.45-2.24 2.81l2.57 4.2H28.7zm-2.04-5.46c1.48 0 1.94-.63 1.94-1.57 0-.62-.28-1.4-1.88-1.4h-1.88v2.97h1.82zm-16.25-.54c-1.18-.33-1.31-.95-1.31-1.35 0-.77.6-1.28 1.66-1.28.74 0 1.4.31 1.87.94l1.3-.75a3.63 3.63 0 0 0-3.17-1.68c-1.85 0-3.37 1.15-3.37 2.84 0 1.67 1.43 2.43 2.96 2.86l.71.2c1.32.35 1.42.94 1.42 1.45 0 .94-.98 1.52-1.84 1.52-.89 0-1.59-.3-2.16-1.3l-1.29.76c.84 1.44 1.84 2.02 3.46 2.02 1.8 0 3.53-1.37 3.53-3.07 0-2.02-1.64-2.6-3.06-2.96l-.71-.2z"/></g></svg>